<svg width="277" height="48" viewBox="0 0 277 48" fill="none" xmlns="http://www.w3.org/2000/svg">
<path d="M23.7779 13.213L29.5937 30.4766H18.0482L23.7994 13.213H23.7779ZM17.2297 0.519897L0.27771 47.6535H12.2324L15.0326 39.3358H32.5231L35.3233 47.6535H47.4072L30.4553 0.519897H17.2297Z" fill="#9DB2FF"/>
<path d="M82.3237 15.4224C81.4836 13.8628 80.2558 12.6498 78.6834 11.8267C77.111 11.0036 75.237 10.5921 73.1046 10.5921C69.3997 10.5921 66.4487 11.8051 64.2301 14.2527C62.0115 16.7004 60.8914 19.9495 60.8914 24.0217C60.8914 28.3538 62.0545 31.7545 64.4024 34.2022C66.7287 36.6498 69.9597 37.8628 74.0523 37.8628C76.8525 37.8628 79.2219 37.148 81.1605 35.7184C83.0991 34.2888 84.4992 32.2311 85.4039 29.5451H70.9075V21.0758H95.7431V31.7545C94.9031 34.6137 93.4599 37.278 91.4351 39.7473C89.4103 42.2166 86.8471 44.2094 83.7238 45.7256C80.6005 47.2419 77.0895 48 73.1692 48C68.5381 48 64.4024 46.982 60.7837 44.9459C57.165 42.9098 54.3217 40.0722 52.2969 36.4549C50.2721 32.8376 49.2598 28.7004 49.2598 24.0433C49.2598 19.3863 50.2721 15.2274 52.2969 11.5885C54.3217 7.94946 57.1434 5.09025 60.7406 3.05415C64.3378 1.01805 68.4519 0 73.083 0C78.6834 0 83.4222 1.36462 87.2779 4.09386C91.1335 6.82311 93.6753 10.6137 94.9246 15.444H82.3022L82.3237 15.4224Z" fill="#9DB2FF"/>
<path d="M113.514 38.7943H128.462V47.6535H102.097V0.519897H113.514V38.7943Z" fill="#9DB2FF"/>
<path d="M145.35 0.519897H133.933V47.6535H145.35V0.519897Z" fill="#9DB2FF"/>
<path d="M187.482 23.1769C186.233 25.4296 184.315 27.2708 181.731 28.6571C179.146 30.0434 175.936 30.7365 172.124 30.7365H165.037V47.6535H153.621V0.519897H172.124C175.872 0.519897 179.017 1.16972 181.601 2.46936C184.186 3.769 186.125 5.56683 187.417 7.8412C188.71 10.1156 189.356 12.7365 189.356 15.704C189.356 18.4333 188.731 20.9242 187.482 23.1986M176.13 20.0795C177.207 19.0398 177.724 17.5885 177.724 15.7257C177.724 13.8629 177.186 12.3899 176.13 11.3719C175.053 10.3322 173.438 9.83398 171.262 9.83398H165.059V21.6607H171.262C173.438 21.6607 175.075 21.1408 176.13 20.1228" fill="#9DB2FF"/>
<path d="M229.14 23.1769C227.891 25.4296 225.974 27.2708 223.389 28.6571C220.804 30.0434 217.595 30.7365 213.782 30.7365H206.696V47.6535H195.279V0.519897H213.782C217.53 0.519897 220.675 1.16972 223.26 2.46936C225.845 3.769 227.783 5.56683 229.076 7.8412C230.368 10.1156 231.014 12.7365 231.014 15.704C231.014 18.4333 230.39 20.9242 229.14 23.1986M217.789 20.0795C218.866 19.0398 219.383 17.5885 219.383 15.7257C219.383 13.8629 218.844 12.3899 217.789 11.3719C216.712 10.3322 215.096 9.83398 212.921 9.83398H206.717V21.6607H212.921C215.096 21.6607 216.733 21.1408 217.789 20.1228" fill="#9DB2FF"/>
<path d="M261.838 39.3141H244.348L241.547 47.6318H229.593L246.545 0.519897H259.77L276.722 47.6535H264.638L261.838 39.3358V39.3141ZM258.909 30.4549L253.093 13.1914L247.342 30.4549H258.887H258.909Z" fill="#9DB2FF"/>
</svg>
